<svg xmlns="http://www.w3.org/2000/svg" width="640" height="640" viewBox="0 0 640 640" version="1.1"><path d="M 291.052 108.624 C 260.702 112.742, 228.615 124.802, 203 141.718 C 128.474 190.934, 92.827 279.341, 112.011 367.376 C 115.125 381.662, 121.160 398.614, 128.433 413.500 C 160.429 478.989, 222.839 523.122, 295.974 531.974 C 306.865 533.293, 333.118 533.294, 344.026 531.977 C 377.280 527.962, 410.015 516.091, 437.101 498.223 C 489.898 463.395, 524.292 407.495, 531.974 344.026 C 533.431 331.993, 533.210 305.353, 531.551 293 C 528.282 268.661, 522.076 248.010, 511.567 226.500 C 480.052 161.993, 418.702 117.855, 347.603 108.534 C 333.132 106.637, 305.365 106.681, 291.052 108.624 M 308.500 214.019 C 273.209 217.787, 241.141 239.979, 225.145 271.705 C 217.121 287.620, 213.711 302.237, 213.762 320.500 C 213.936 383, 266.976 431.188, 329.753 425.879 C 370.820 422.407, 407.357 393.753, 420.770 354.500 C 428.230 332.668, 428.116 306.218, 420.470 284.799 C 406.482 245.613, 371.900 218.396, 330.500 213.992 C 320.540 212.933, 318.654 212.935, 308.500 214.019" stroke="none" fill="#fbfbfb" fill-rule="evenodd"/><path d="M 293.500 0.649 C 291.850 0.842, 286.225 1.478, 281 2.062 C 267.620 3.560, 244.683 8.265, 230.147 12.494 C 141.152 38.384, 67.534 102.167, 28.450 187.246 C 13.830 219.069, 4.343 254.949, 0.937 291.292 C -0.769 309.500, 0.232 348.656, 2.834 365.531 C 10.601 415.893, 27.365 459.024, 55.100 500 C 95.220 559.273, 156.996 605.070, 225 625.955 C 255.190 635.227, 278.843 638.981, 311.708 639.718 C 346.496 640.499, 368.885 638.051, 400.500 630.013 C 422.175 624.502, 438.798 618.238, 461.500 607.029 C 525.314 575.521, 574.651 526.473, 606.378 463 C 623.618 428.509, 634.655 391.585, 638.061 357 C 638.683 350.675, 639.600 344.719, 640.097 343.764 C 641.246 341.554, 641.293 294.701, 640.145 295.410 C 639.675 295.701, 639.003 292.202, 638.652 287.635 C 637.057 266.886, 629.674 234.082, 621.573 211.746 C 601.070 155.220, 565.979 106.450, 518.500 68.490 C 471.857 31.198, 411.788 7.127, 350.144 1.025 C 340.670 0.087, 300.601 -0.178, 293.500 0.649 M 291.052 108.624 C 260.702 112.742, 228.615 124.802, 203 141.718 C 128.474 190.934, 92.827 279.341, 112.011 367.376 C 115.125 381.662, 121.160 398.614, 128.433 413.500 C 160.429 478.989, 222.839 523.122, 295.974 531.974 C 306.865 533.293, 333.118 533.294, 344.026 531.977 C 377.280 527.962, 410.015 516.091, 437.101 498.223 C 489.898 463.395, 524.292 407.495, 531.974 344.026 C 533.431 331.993, 533.210 305.353, 531.551 293 C 528.282 268.661, 522.076 248.010, 511.567 226.500 C 480.052 161.993, 418.702 117.855, 347.603 108.534 C 333.132 106.637, 305.365 106.681, 291.052 108.624 M 308.500 214.019 C 273.209 217.787, 241.141 239.979, 225.145 271.705 C 217.121 287.620, 213.711 302.237, 213.762 320.500 C 213.936 383, 266.976 431.188, 329.753 425.879 C 370.820 422.407, 407.357 393.753, 420.770 354.500 C 428.230 332.668, 428.116 306.218, 420.470 284.799 C 406.482 245.613, 371.900 218.396, 330.500 213.992 C 320.540 212.933, 318.654 212.935, 308.500 214.019 M 0.432 320 C 0.432 333.475, 0.574 338.988, 0.747 332.250 C 0.920 325.512, 0.920 314.488, 0.747 307.750 C 0.574 301.012, 0.432 306.525, 0.432 320" stroke="none" fill="#e4041c" fill-rule="evenodd"/></svg>